<svg xmlns="http://www.w3.org/2000/svg" width="20" height="20" class="inline-flex" viewBox="0 0 14 20" fill="currentColor" aria-hidden="true"><path d="M12 0.625H2C1.50272 0.625 1.02581 0.822544 0.674175 1.17417C0.322544 1.52581 0.125 2.00272 0.125 2.5V18.75C0.125941 18.8607 0.15514 18.9693 0.20983 19.0656C0.264519 19.1618 0.342886 19.2425 0.4375 19.3C0.535537 19.3525 0.645032 19.38 0.75625 19.38C0.867468 19.38 0.976963 19.3525 1.075 19.3L7 15.725L12.925 19.2875C13.0228 19.3471 13.1355 19.3774 13.25 19.375C13.3585 19.3741 13.4654 19.3485 13.5625 19.3C13.6571 19.2425 13.7355 19.1618 13.7902 19.0656C13.8449 18.9693 13.8741 18.8607 13.875 18.75V2.5C13.875 2.00272 13.6775 1.52581 13.3258 1.17417C12.9742 0.822544 12.4973 0.625 12 0.625ZM12.625 17.65L7.325 14.4625C7.22619 14.4054 7.1141 14.3754 7 14.3754C6.8859 14.3754 6.77381 14.4054 6.675 14.4625L1.375 17.65V2.5C1.375 2.33424 1.44085 2.17527 1.55806 2.05806C1.67527 1.94085 1.83424 1.875 2 1.875H12C12.1658 1.875 12.3247 1.94085 12.4419 2.05806C12.5592 2.17527 12.625 2.33424 12.625 2.5V17.65Z"></path></svg>