<svg xmlns="http://www.w3.org/2000/svg" width="20" height="20" class="inline-flex" viewBox="0 0 16 16" fill="currentColor" aria-hidden="true"><path d="M15.3542 14.646L11.9312 11.224C13.028 9.94433 13.5865 8.28959 13.4896 6.60701C13.3926 4.92443 12.6476 3.34483 11.411 2.19971C10.1744 1.05458 8.54232 0.432967 6.85726 0.465313C5.1722 0.49766 3.56517 1.18145 2.37343 2.37319C1.1817 3.56493 0.497904 5.17196 0.465557 6.85702C0.433211 8.54208 1.05483 10.1742 2.19995 11.4108C3.34507 12.6474 4.92467 13.3923 6.60725 13.4893C8.28983 13.5863 9.94457 13.0278 11.2242 11.931L14.6462 15.354C14.7401 15.4478 14.8674 15.5006 15.0002 15.5006C15.133 15.5006 15.2603 15.4478 15.3542 15.354C15.4481 15.2601 15.5008 15.1327 15.5008 15C15.5008 14.8672 15.4481 14.7398 15.3542 14.646ZM1.5002 6.99996C1.5002 5.91216 1.82277 4.84879 2.42712 3.94432C3.03147 3.03985 3.89045 2.3349 4.89544 1.91862C5.90044 1.50234 7.0063 1.39342 8.0732 1.60564C9.14009 1.81786 10.1201 2.34168 10.8893 3.11087C11.6585 3.88006 12.1823 4.86007 12.3945 5.92696C12.6067 6.99386 12.4978 8.09972 12.0815 9.10472C11.6653 10.1097 10.9603 10.9687 10.0558 11.573C9.15137 12.1774 8.088 12.5 7.0002 12.5C5.542 12.4984 4.14398 11.9184 3.11287 10.8873C2.08176 9.85618 1.50179 8.45816 1.5002 6.99996Z"></path></svg>